<?xml version="1.0" encoding="UTF-8"?>
<svg width="800px" height="600px" viewBox="0 0 800 600" version="1.1" xmlns="http://www.w3.org/2000/svg" xmlns:xlink="http://www.w3.org/1999/xlink">
    <defs>
        <linearGradient x1="0%" y1="0%" x2="100%" y2="100%" id="linearGradient-1">
            <stop stop-color="#28166e" offset="0%"></stop>
            <stop stop-color="#1dbf73" offset="100%"></stop>
        </linearGradient>
        <linearGradient x1="0%" y1="0%" x2="100%" y2="100%" id="linearGradient-2">
            <stop stop-color="#6c5ce7" offset="0%"></stop>
            <stop stop-color="#00b894" offset="100%"></stop>
        </linearGradient>
        <filter x="-50%" y="-50%" width="200%" height="200%" filterUnits="objectBoundingBox" id="filter-3">
            <feGaussianBlur stdDeviation="10" in="SourceGraphic"></feGaussianBlur>
        </filter>
    </defs>
    <g stroke="none" stroke-width="1" fill="none" fill-rule="evenodd">
        <!-- Background Glow -->
        <circle cx="400" cy="300" r="150" fill="url(#linearGradient-1)" opacity="0.1" filter="url(#filter-3)"></circle>
        
        <!-- Main Elements -->
        <g transform="translate(200, 100)">
            <!-- Computer Screen -->
            <rect x="50" y="50" width="300" height="200" rx="10" fill="#2d2d2d" stroke="#444" stroke-width="2"></rect>
            <rect x="60" y="60" width="280" height="170" rx="5" fill="#1a1a1a"></rect>
            
            <!-- Code on Screen -->
            <g transform="translate(70, 70)" fill="#fff" opacity="0.8">
                <rect x="0" y="0" width="120" height="8" rx="2" fill="#6c5ce7" opacity="0.7"></rect>
                <rect x="0" y="20" width="180" height="8" rx="2" fill="#00b894" opacity="0.7"></rect>
                <rect x="20" y="40" width="140" height="8" rx="2" fill="#fff" opacity="0.5"></rect>
                <rect x="20" y="60" width="100" height="8" rx="2" fill="#fff" opacity="0.5"></rect>
                <rect x="0" y="80" width="160" height="8" rx="2" fill="#6c5ce7" opacity="0.7"></rect>
                <rect x="20" y="100" width="120" height="8" rx="2" fill="#fff" opacity="0.5"></rect>
                <rect x="20" y="120" width="90" height="8" rx="2" fill="#fff" opacity="0.5"></rect>
                <rect x="0" y="140" width="140" height="8" rx="2" fill="#00b894" opacity="0.7"></rect>
            </g>
            
            <!-- Computer Stand -->
            <path d="M175,250 L225,250 L240,300 L160,300 Z" fill="#2d2d2d"></path>
            <rect x="150" y="300" width="100" height="10" rx="2" fill="#222"></rect>
            
            <!-- Floating Elements -->
            <circle cx="30" cy="150" r="20" fill="url(#linearGradient-1)" opacity="0.9"></circle>
            <circle cx="380" cy="100" r="15" fill="url(#linearGradient-2)" opacity="0.9"></circle>
            <circle cx="350" cy="250" r="25" fill="url(#linearGradient-1)" opacity="0.7"></circle>
            
            <!-- Web Elements -->
            <g transform="translate(0, 30)">
                <rect x="-50" y="50" width="80" height="80" rx="10" fill="#fff" opacity="0.1" stroke="#fff" stroke-width="1"></rect>
                <rect x="-40" y="70" width="60" height="8" rx="2" fill="#fff" opacity="0.6"></rect>
                <rect x="-40" y="90" width="40" height="8" rx="2" fill="#fff" opacity="0.6"></rect>
                <rect x="-40" y="110" width="50" height="8" rx="2" fill="#fff" opacity="0.6"></rect>
            </g>
            
            <g transform="translate(400, 180)">
                <rect x="0" y="0" width="80" height="80" rx="10" fill="#fff" opacity="0.1" stroke="#fff" stroke-width="1"></rect>
                <circle cx="40" cy="25" r="15" fill="#fff" opacity="0.2"></circle>
                <rect x="15" y="50" width="50" height="6" rx="2" fill="#fff" opacity="0.6"></rect>
                <rect x="20" y="65" width="40" height="6" rx="2" fill="#fff" opacity="0.6"></rect>
            </g>
            
            <!-- Connecting Lines -->
            <path d="M30,150 Q100,50 200,80" stroke="url(#linearGradient-1)" stroke-width="2" opacity="0.5" stroke-dasharray="5,5"></path>
            <path d="M350,250 Q400,200 380,100" stroke="url(#linearGradient-2)" stroke-width="2" opacity="0.5" stroke-dasharray="5,5"></path>
            
            <!-- Gear Icons -->
            <g transform="translate(400, 30)" fill="#fff" opacity="0.7">
                <path d="M20,0 L24,0 L25,5 Q27.5,5.5 30,7 L34,4 L37,7 L34,11 Q35.5,13.5 36,16 L41,17 L41,21 L36,22 Q35.5,24.5 34,27 L37,31 L34,34 L30,31 Q27.5,32.5 25,33 L24,38 L20,38 L19,33 Q16.5,32.5 14,31 L10,34 L7,31 L10,27 Q8.5,24.5 8,22 L3,21 L3,17 L8,16 Q8.5,13.5 10,11 L7,7 L10,4 L14,7 Q16.5,5.5 19,5 L20,0 Z M22,10 C16.5,10 12,14.5 12,20 C12,25.5 16.5,30 22,30 C27.5,30 32,25.5 32,20 C32,14.5 27.5,10 22,10 Z" fill="url(#linearGradient-2)"></path>
            </g>
        </g>
    </g>
</svg>
